<svg width="87" height="17" viewBox="0 0 87 17" fill="none" xmlns="http://www.w3.org/2000/svg">
<path d="M16.3 5.98H22.48L22.63 8.15H22.17C21.62 6.86 21.48 6.5 20.61 6.5H20.02V11.8C20.02 12.39 20.35 12.5 21.01 12.52V13H17.76V12.52C18.43 12.5 18.75 12.39 18.75 11.8V6.5H18.17C17.3 6.5 17.16 6.86 16.6 8.15H16.15L16.3 5.98ZM25.0073 5.39V8.54C25.4773 8.06 26.0773 7.54 26.9173 7.54C27.8273 7.54 28.3573 8.03 28.3573 9.18V11.98C28.3573 12.44 28.6373 12.49 29.0873 12.55V13H26.4473V12.55C26.8873 12.49 27.1473 12.44 27.1473 11.98V9.28C27.1473 8.66 26.9073 8.41 26.3173 8.41C25.8373 8.41 25.3573 8.6 25.0073 8.84V11.98C25.0073 12.44 25.2673 12.49 25.7073 12.55V13H23.0673V12.55C23.5173 12.49 23.7973 12.44 23.7973 11.98V6.54L23.1173 6.11V5.86L24.7373 5.39H25.0073ZM32.2003 7.54C33.5603 7.54 34.2703 8.5 34.2703 9.79V10.12H30.7803C30.7803 11.33 31.4603 12.14 32.5203 12.14C33.2303 12.14 33.7003 11.81 34.0603 11.33L34.2803 11.46C34.0303 12.43 33.2703 13.1 32.1003 13.1C30.6303 13.1 29.7003 11.99 29.7003 10.49C29.7003 8.72 30.7803 7.54 32.2003 7.54ZM32.0403 8.09C31.3203 8.09 30.8903 8.8 30.8103 9.61H33.1403C33.1403 8.69 32.7703 8.09 32.0403 8.09ZM39.8805 6.52H39.3605V9.48H39.9105C41.0605 9.48 41.6005 8.98 41.6005 7.97C41.6005 7.11 41.0605 6.52 39.8805 6.52ZM37.1405 5.98H40.3105C42.1205 5.98 42.9305 6.78 42.9305 7.97C42.9305 9.03 42.0605 9.67 41.1605 9.8L42.6805 11.81C43.0105 12.26 43.3705 12.5 43.9005 12.52V13H42.2105C41.8705 12.76 41.6405 12.51 41.3305 12.05L39.8505 9.99H39.3605V11.8C39.3605 12.39 39.6405 12.5 40.2905 12.52V13H37.1405V12.52C37.8105 12.5 38.0905 12.39 38.0905 11.8V7.17C38.0905 6.59 37.8105 6.48 37.1405 6.47V5.98ZM46.7804 7.54C48.1404 7.54 48.8504 8.5 48.8504 9.79V10.12H45.3604C45.3604 11.33 46.0404 12.14 47.1004 12.14C47.8104 12.14 48.2804 11.81 48.6404 11.33L48.8604 11.46C48.6104 12.43 47.8504 13.1 46.6804 13.1C45.2104 13.1 44.2804 11.99 44.2804 10.49C44.2804 8.72 45.3604 7.54 46.7804 7.54ZM46.6204 8.09C45.9004 8.09 45.4704 8.8 45.3904 9.61H47.7204C47.7204 8.69 47.3504 8.09 46.6204 8.09ZM51.6605 13.1C50.9405 13.1 50.2605 12.94 49.7705 12.58L49.7105 11.29H50.2305C50.4205 12.11 50.8905 12.59 51.6905 12.59C52.2805 12.59 52.6605 12.32 52.6605 11.84C52.6605 11.27 52.2605 11.07 51.3605 10.82C50.3505 10.53 49.7605 10.11 49.7605 9.16C49.7605 8.18 50.4805 7.54 51.6105 7.54C52.3005 7.54 52.8705 7.71 53.3105 7.97V9.17H52.8005C52.6505 8.44 52.2505 8.06 51.5705 8.06C51.0505 8.06 50.7505 8.37 50.7505 8.78C50.7505 9.27 51.0805 9.53 51.9005 9.75C52.9305 10.03 53.6405 10.38 53.6405 11.43C53.6405 12.42 52.9005 13.1 51.6605 13.1ZM56.3276 7.54V11.98C56.3276 12.44 56.5976 12.49 57.0476 12.55V13H54.3976V12.55C54.8376 12.49 55.1176 12.44 55.1176 11.98V8.7L54.4476 8.28V8.04L56.0476 7.54H56.3276ZM55.6876 6.94C55.2376 6.94 54.9176 6.6 54.9176 6.19C54.9176 5.78 55.2376 5.44 55.6876 5.44C56.1276 5.44 56.4476 5.78 56.4476 6.19C56.4476 6.6 56.1276 6.94 55.6876 6.94ZM61.5072 13.1V12.18C61.1272 12.73 60.6272 13.1 59.8572 13.1C58.5372 13.1 57.7472 12.04 57.7472 10.58C57.7472 8.7 58.8872 7.56 60.3572 7.56C60.8472 7.56 61.2872 7.73 61.5072 8.02V6.54L60.8272 6.11V5.86L62.4472 5.39H62.7172V11.81C62.7172 12.15 62.8172 12.25 63.2272 12.29L63.4772 12.31V12.76L61.7272 13.1H61.5072ZM60.3972 8.08C59.5172 8.08 58.9672 8.93 58.9672 10.16C58.9672 11.32 59.4472 12.27 60.4272 12.27C60.8372 12.27 61.2472 12.12 61.5072 11.88V9.35C61.5072 8.49 61.0972 8.08 60.3972 8.08ZM66.6046 7.54C67.9646 7.54 68.6746 8.5 68.6746 9.79V10.12H65.1846C65.1846 11.33 65.8646 12.14 66.9246 12.14C67.6346 12.14 68.1046 11.81 68.4646 11.33L68.6846 11.46C68.4346 12.43 67.6746 13.1 66.5046 13.1C65.0346 13.1 64.1046 11.99 64.1046 10.49C64.1046 8.72 65.1846 7.54 66.6046 7.54ZM66.4446 8.09C65.7246 8.09 65.2946 8.8 65.2146 9.61H67.5446C67.5446 8.69 67.1746 8.09 66.4446 8.09ZM73.5264 11.98V9.28C73.5264 8.66 73.2764 8.41 72.6864 8.41C72.2164 8.41 71.7164 8.6 71.3764 8.84V11.98C71.3764 12.44 71.6264 12.49 72.0764 12.55V13H69.4464V12.55C69.8864 12.49 70.1664 12.44 70.1664 11.98V8.72L69.4964 8.29V8.04L71.0964 7.52H71.3764V8.54C71.8364 8.06 72.4564 7.54 73.2964 7.54C74.1964 7.54 74.7364 8.03 74.7364 9.18V11.98C74.7364 12.44 75.0064 12.49 75.4564 12.55V13H72.8164V12.55C73.2664 12.49 73.5264 12.44 73.5264 11.98ZM77.1773 10C77.1773 11.28 77.7673 12.14 78.8573 12.14C79.5073 12.14 79.9573 11.85 80.3273 11.33L80.5573 11.47C80.2473 12.58 79.4873 13.1 78.4273 13.1C77.0273 13.1 76.0773 12.04 76.0773 10.5C76.0773 8.87 77.1273 7.54 78.7273 7.54C79.7773 7.54 80.4973 8.02 80.4973 8.84C80.4973 9.21 80.3173 9.39 80.0873 9.49H79.4373V9.1C79.4373 8.53 79.1973 8.1 78.5973 8.1C77.7673 8.1 77.1773 8.88 77.1773 10ZM83.5623 13.03L81.5323 8.48C81.4323 8.27 81.3723 8.24 80.9523 8.08V7.64H83.6023V8.08C83.0823 8.15 82.8923 8.2 82.8923 8.44C82.8923 8.52 82.9023 8.59 82.9723 8.75L84.1523 11.64L85.2723 8.75C85.3323 8.59 85.3523 8.52 85.3523 8.44C85.3523 8.2 85.1623 8.15 84.6523 8.08V7.64H86.6423V8.08C86.2223 8.23 86.1523 8.26 86.0623 8.48L83.8223 13.93C83.5223 14.66 83.1723 15.07 82.5323 15.07C82.1823 15.07 81.8923 14.92 81.7423 14.7V14.1H82.2823C82.9323 14.1 83.1823 13.99 83.4023 13.43L83.5623 13.03Z" fill="black"/>
<g clip-path="url(#clip0_80_123)">
<path fill-rule="evenodd" clip-rule="evenodd" d="M12.4883 16.6001C13.0598 14.6646 13.829 12.0595 10.413 9.6362C9.73322 9.154 9.01862 8.67937 8.30095 8.20273C4.82992 5.89733 1.2873 3.54443 1.27039 0.0563188C0.528354 1.15601 -0.510266 4.459 2.71002 7.10027C4.13532 8.26927 5.66085 9.0916 7.07015 9.85127C10.168 11.5211 12.7043 12.8883 12.3804 16.9694C12.4147 16.8493 12.4511 16.7261 12.4883 16.6001ZM11.6059 14.8648C11.2245 13.3739 9.88039 11.6965 5.98412 10.5078C2.30115 9.3842 1.0231 8.08447 0.296493 7.34557C0.199859 7.24727 0.11298 7.15893 0.0314941 7.08223C0.447177 8.5957 1.66758 10.9528 5.04049 11.7126C9.22729 12.6556 10.3864 13.0307 11.6059 14.8648ZM7.78839 13.3592C10.5824 13.5153 11.5245 15.2782 11.7897 16.0337C10.7538 15.0182 10.1261 14.5972 7.48889 14.5418C5.37912 14.4974 3.53299 13.0243 2.90353 12.2932C4.44079 12.965 5.18879 13.214 7.78839 13.3592ZM11.8975 16.8278C11.6771 16.3844 10.8297 15.525 9.20105 15.5909C8.76039 15.6087 8.47232 15.632 8.25535 15.6495C7.79329 15.6869 7.65389 15.6982 7.05039 15.5749C7.37812 15.9735 8.30702 16.7133 9.40075 16.4838C10.7031 16.2105 10.8696 16.2966 11.7591 16.7564C11.8033 16.7792 11.8494 16.8031 11.8975 16.8278Z" fill="black"/>
</g>
<defs>
<clipPath id="clip0_80_123">
<rect width="13" height="17" fill="white"/>
</clipPath>
</defs>
</svg>
